# xmcd
#
# Track frame offsets: 
#        150
#        16609
#        41170
#        60248
#        76138
#        90793
#        112165
#        140681
#        152815
#        171562
#        186764
#        205295
#        223265
#        243451
#        265934
#
# Disc length: 4089 seconds
#
# Revision: 0
# Processed by: cddbd v1.5.2PL0 Copyright (c) Steve Scherf et al.
# Submitted via: ExactAudioCopy v1.2
#
DISCID=cf0ff70f
DTITLE=Philipp Fankhauser - I'll Be Around
DYEAR=2017
DGENRE=Blues
TTITLE0=Horse of a Different Color
TTITLE1=Homeless
TTITLE2=Big Ol' Easy
TTITLE3=Cryin' Shame (Can't Believe My Baby)
TTITLE4=I Fall so Easy
TTITLE5=Catch up with the Blues
TTITLE6=Let's Straighten It Out
TTITLE7=The Lesson
TTITLE8=Somebody's Sleepin' in My Bed
TTITLE9=I'll Be Around
TTITLE10=It Tears Me Up
TTITLE11=Only in It for the Money
TTITLE12=When a Fool Takes His Turn
TTITLE13=My Dog and Me
TTITLE14=Circumstances
EXTD=
EXTT0=
EXTT1=
EXTT2=
EXTT3=
EXTT4=
EXTT5=
EXTT6=
EXTT7=
EXTT8=
EXTT9=
EXTT10=
EXTT11=
EXTT12=
EXTT13=
EXTT14=
PLAYORDER=
